<svg id="visual" viewBox="0 0 900 600" width="900" height="600" xmlns="http://www.w3.org/2000/svg" xmlns:xlink="http://www.w3.org/1999/xlink" version="1.1"><rect x="0" y="0" width="900" height="600" fill="#FFF"></rect><defs><linearGradient id="grad1_0" x1="33.3%" y1="100%" x2="100%" y2="0%"><stop offset="20%" stop-color="#ffffff" stop-opacity="1"></stop><stop offset="80%" stop-color="#ffffff" stop-opacity="1"></stop></linearGradient></defs><defs><linearGradient id="grad2_0" x1="0%" y1="100%" x2="66.7%" y2="0%"><stop offset="20%" stop-color="#ffffff" stop-opacity="1"></stop><stop offset="80%" stop-color="#ffffff" stop-opacity="1"></stop></linearGradient></defs><g transform="translate(900, 600)"><path d="M-432.7 0C-412 -53.8 -391.4 -107.6 -364 -150.8C-336.6 -194 -302.4 -226.6 -270.8 -270.8C-239.2 -315 -210.3 -370.8 -165.6 -399.7C-120.9 -428.6 -60.4 -430.7 0 -432.7L0 0Z" fill="#FCAF3C"></path></g><g transform="translate(0, 0)"><path d="M432.7 0C400.4 46.8 368.1 93.5 349.2 144.7C330.3 195.8 324.9 251.2 297 297C269.1 342.7 218.8 378.7 165.6 399.7C112.3 420.7 56.2 426.7 0 432.7L0 0Z" fill="#FCAF3C"></path></g></svg>